<?xml version="1.0" standalone="no"?><svg xmlns="http://www.w3.org/2000/svg" viewBox="0 0 1440 320">
<linearGradient id="grad1" x1="0%" y1="0%" x2="100%" y2="0%">
      <stop offset="0%" style="stop-color:rgba(194,33,108,1);stop-opacity:.8" />
      <stop offset="100%" style="stop-color:#ff3019;stop-opacity:.8" />
</linearGradient>
<path fill="url(#grad1)" fill-opacity="1" d="M0,160L0,128L90,128L90,288L180,288L180,32L270,32L270,192L360,192L360,288L450,288L450,192L540,192L540,224L630,224L630,96L720,96L720,256L810,256L810,288L900,288L900,96L990,96L990,160L1080,160L1080,192L1170,192L1170,224L1260,224L1260,160L1350,160L1350,160L1440,160L1440,320L1350,320L1350,320L1260,320L1260,320L1170,320L1170,320L1080,320L1080,320L990,320L990,320L900,320L900,320L810,320L810,320L720,320L720,320L630,320L630,320L540,320L540,320L450,320L450,320L360,320L360,320L270,320L270,320L180,320L180,320L90,320L90,320L0,320L0,320Z"></path>
</svg>